<?xml version="1.0" encoding="utf-8"?>
<!-- Generator: Adobe Illustrator 17.1.0, SVG Export Plug-In . SVG Version: 6.00 Build 0)  -->
<!DOCTYPE svg PUBLIC "-//W3C//DTD SVG 1.1//EN" "http://www.w3.org/Graphics/SVG/1.1/DTD/svg11.dtd">
<svg version="1.1" id="Слой_1" xmlns="http://www.w3.org/2000/svg" xmlns:xlink="http://www.w3.org/1999/xlink" x="0px" y="0px"
	 viewBox="0.1 49.1 611.8 611.8" enable-background="new 0.1 49.1 611.8 611.8" xml:space="preserve">
<circle fill="#222222" cx="306" cy="355" r="305.4"/>
<path fill="#DBAD5C" d="M549.1,362.6L549.1,362.6l-51.2-175.4h-0.1c-0.4-1.4-1.1-2.7-2-3.8c-2.3-2.6-5.8-3.9-9.2-3.4l-144.6,20.4
	v-8.2c0-9.6-3.9-18.8-10.8-25.6c14.1-13.9,14.4-36.5,0.5-50.6c-13.9-14.1-36.5-14.4-50.6-0.5c-14.1,13.9-14.4,36.5-0.5,50.6
	c0.1,0.1,0.4,0.4,0.5,0.5c-6.9,6.8-10.8,16-10.8,25.6v18.3l-147.6,20.8c-2.9,0.4-5.5,2.1-7.3,4.5c-0.5,0.9-0.9,1.7-1.2,2.7l0,0
	L62.8,413.9l0,0c-0.2,1-0.5,1.8-0.5,2.8c0.4,34,28.1,61.2,62.2,61c33.5-0.4,60.6-27.4,61-61c0-1-0.1-2-0.5-2.8l0,0L137,250.1
	l133-18.7v238.4H267c-29.9,0-55.4,21.6-60.5,51.1h-49.6c-5.7,0-10.3,4.5-10.3,10.3v51.1c0,5.7,4.5,10.3,10.3,10.3h297.6
	c5.7,0,10.3-4.5,10.3-10.3v-51.1c0-5.7-4.5-10.3-10.3-10.3h-49.6c-5-29.5-30.6-51-60.5-51.1h-2.9V221.2l132.1-18.6l-46.8,160l0,0
	c-0.2,1-0.5,1.8-0.5,2.8c-0.4,34,26.9,61.8,61,62.2c34,0.4,61.8-26.9,62.2-61c0-0.4,0-0.9,0-1.2
	C549.4,364.5,549.3,363.6,549.1,362.6L549.1,362.6z M124,457.7c-18.7,0-34.9-12.7-39.7-30.7h79.3C159,445.1,142.7,457.7,124,457.7z
	 M161.6,406.5H86.5L124,278.1L161.6,406.5z M290.8,141.2c0-8.5,6.9-15.2,15.2-15.2c8.5,0,15.2,6.9,15.2,15.2
	c0,8.4-6.9,15.2-15.2,15.2l0,0C297.5,156.4,290.8,149.6,290.8,141.2z M444.5,571.8H167.4v-30.5h277.1V571.8z M384.3,520.8H227.7
	c4.7-17.9,20.9-30.5,39.4-30.5h77.5C363.4,490.2,379.5,502.7,384.3,520.8z M290.8,469.7V192.3c0.5-8.5,7.6-14.9,16.1-14.4
	c7.7,0.5,14,6.6,14.4,14.4v277.4H290.8z M488,226.8l37.5,128.4h-75.1L488,226.8z M488,406.5c-18.7,0-34.9-12.7-39.7-30.7h79.3
	C522.9,393.8,506.7,406.5,488,406.5L488,406.5z"/>
</svg>
