<?xml version="1.0" encoding="utf-8"?>
<!-- Generator: Adobe Illustrator 17.1.0, SVG Export Plug-In . SVG Version: 6.00 Build 0)  -->
<!DOCTYPE svg PUBLIC "-//W3C//DTD SVG 1.1//EN" "http://www.w3.org/Graphics/SVG/1.1/DTD/svg11.dtd">
<svg version="1.1" id="Слой_1" xmlns="http://www.w3.org/2000/svg" xmlns:xlink="http://www.w3.org/1999/xlink" x="0px" y="0px"
	 viewBox="57 152 498 498" enable-background="new 57 152 498 498" xml:space="preserve">
<circle fill="#15333A" stroke="#000000" stroke-miterlimit="10" cx="306" cy="401" r="248.5"/>
<path fill="#DBAD5C" d="M503.8,407.2L503.8,407.2l-41.7-142.7H462c-0.3-1.1-0.9-2.2-1.6-3.1c-1.9-2.1-4.7-3.2-7.5-2.8l-117.7,16.6
	v-6.7c0-7.8-3.2-15.3-8.8-20.8c11.5-11.3,11.7-29.7,0.4-41.2s-29.7-11.7-41.2-0.4s-11.7,29.7-0.4,41.2c0.1,0.1,0.3,0.3,0.4,0.4
	c-5.6,5.5-8.8,13-8.8,20.8v14.9l-120.1,16.9c-2.4,0.3-4.5,1.7-5.9,3.7c-0.4,0.7-0.7,1.4-1,2.2l0,0l-41.7,142.7l0,0
	c-0.2,0.8-0.4,1.5-0.4,2.3c0.3,27.7,22.9,49.8,50.6,49.6c27.3-0.3,49.3-22.3,49.6-49.6c0-0.8-0.1-1.6-0.4-2.3l0,0l-39-133.3
	l108.2-15.2v194h-2.4c-24.3,0-45.1,17.6-49.2,41.6h-40.4c-4.6,0-8.4,3.7-8.4,8.4V586c0,4.6,3.7,8.4,8.4,8.4h242.2
	c4.6,0,8.4-3.7,8.4-8.4v-41.6c0-4.6-3.7-8.4-8.4-8.4h-40.4c-4.1-24-24.9-41.5-49.2-41.6h-2.4V292.1L442.4,277l-38.1,130.2l0,0
	c-0.2,0.8-0.4,1.5-0.4,2.3c-0.3,27.7,21.9,50.3,49.6,50.6c27.7,0.3,50.3-21.9,50.6-49.6c0-0.3,0-0.7,0-1
	C504.1,408.7,504,408,503.8,407.2L503.8,407.2z M157.9,484.6c-15.2,0-28.4-10.3-32.3-25h64.5C186.4,474.3,173.1,484.6,157.9,484.6z
	 M188.5,442.9h-61.1l30.5-104.5L188.5,442.9z M293.6,227c0-6.9,5.6-12.4,12.4-12.4c6.9,0,12.4,5.6,12.4,12.4s-5.6,12.4-12.4,12.4
	l0,0C299.1,239.4,293.6,233.9,293.6,227z M418.7,577.4H193.2v-24.8h225.5V577.4z M369.7,535.9H242.3c3.8-14.6,17-24.8,32.1-24.8
	h63.1C352.7,511,365.8,521.2,369.7,535.9z M293.6,494.3V268.6c0.4-6.9,6.2-12.1,13.1-11.7c6.3,0.4,11.4,5.4,11.7,11.7v225.7H293.6z
	 M454.1,296.7l30.5,104.5h-61.1L454.1,296.7z M454.1,442.9c-15.2,0-28.4-10.3-32.3-25h64.5C482.5,432.6,469.3,442.9,454.1,442.9
	L454.1,442.9z"/>
</svg>
