<!-- icon666.com - MILLIONS vector ICONS FREE --><svg viewBox="-48 0 512 512.08" xmlns="http://www.w3.org/2000/svg"><path d="m144 167.96875c-4.425781 0-8.039062-3.578125-8.039062-8 0-4.425781 3.535156-8 7.949218-8h.089844c4.414062 0 8 3.574219 8 8 0 4.421875-3.59375 8-8 8zm0 0"></path><path d="m207.761719 512.078125c-2.722657 0-5.371094-1.382813-6.867188-3.878906l-24-40c-2.269531-3.792969-1.046875-8.703125 2.746094-10.976563 3.800781-2.277344 8.710937-1.039062 10.976563 2.746094l24 40c2.269531 3.792969 1.046874 8.703125-2.746094 10.976562-1.285156.765626-2.710938 1.132813-4.109375 1.132813zm0 0"></path><path d="m207.742188 512.078125c-1.398438 0-2.820313-.367187-4.109376-1.140625-3.792968-2.273438-5.015624-7.183594-2.746093-10.976562l24-40c2.265625-3.785157 7.183593-5.023438 10.976562-2.746094 3.792969 2.273437 5.015625 7.183594 2.746094 10.976562l-24 40c-1.496094 2.503906-4.144531 3.886719-6.867187 3.886719zm0 0"></path><path d="m183.753906 472.078125c-4.425781 0-8-3.574219-8-8v-296.109375c0-4.425781 3.574219-8 8-8 4.421875 0 8 3.574219 8 8v296.109375c0 4.425781-3.578125 8-8 8zm0 0"></path><path d="m231.753906 472.078125c-4.425781 0-8-3.574219-8-8v-296.109375c0-4.425781 3.574219-8 8-8 4.421875 0 8 3.574219 8 8v296.109375c0 4.425781-3.578125 8-8 8zm0 0"></path><path d="m249.160156 175.96875h-82.785156c-4.421875 0-8-3.578125-8-8 0-4.425781 3.578125-8 8-8h82.785156c4.425782 0 8 3.574219 8 8 0 4.421875-3.574218 8-8 8zm0 0"></path><path d="m271.753906 143.953125h-127.984375c-4.425781 0-8-3.578125-8-8 0-4.425781 3.574219-8 8-8h127.984375c4.421875 0 8 3.574219 8 8 0 4.421875-3.578125 8-8 8zm0 0"></path><path d="m143.761719 191.96875c-17.65625-.023438-32.007813-14.375-32.007813-32 0-17.632812 14.359375-31.992188 32.007813-32.015625h.007812c4.414063 0 7.992188 3.574219 8 7.992187.007813 4.414063-3.570312 8-7.992187 8.007813-8.832032.007813-16.023438 7.191406-16.023438 16.015625 0 8.816406 7.175782 15.992188 16.007813 16 8.8125-.007812 15.992187-7.183594 15.992187-16 0-4.425781 3.574219-8 8-8 4.421875 0 8 3.574219 8 8 0 17.625-14.355468 31.976562-31.992187 32zm0 0"></path><path d="m272 167.953125c-4.425781 0-8.039062-3.578125-8.039062-8 0-4.425781 3.535156-8 7.949218-8h.089844c4.414062 0 8 3.574219 8 8 0 4.421875-3.59375 8-8 8zm0 0"></path><path d="m271.761719 191.96875c-17.640625 0-32-14.351562-32.027344-31.992188-.007813-4.417968 3.570313-8 7.992187-8.007812h.007813c4.417969 0 7.992187 3.574219 8 7.992188.007813 8.832031 7.195313 16.007812 16.019531 16.007812 4.269532-.007812 8.292969-1.671875 11.316406-4.703125 3.027344-3.027344 4.691407-7.042969 4.683594-11.304687 0-8.824219-7.179687-16-16.011718-16.007813-4.421876-.007813-8-3.59375-7.988282-8.007813.007813-4.417968 3.582032-7.992187 8-7.992187h.007813c17.636719.023437 31.992187 14.375 31.992187 32 .007813 8.535156-3.3125 16.574219-9.363281 22.621094-6.046875 6.050781-14.070313 9.386719-22.628906 9.394531zm0 0"></path><path d="m223.753906 143.953125c-4.425781 0-8-3.578125-8-8v-86.082031c0-4.421875 3.574219-8 8-8 4.421875 0 8 3.578125 8 8v86.082031c0 4.421875-3.578125 8-8 8zm0 0"></path><path d="m191.753906 143.953125c-4.425781 0-8-3.578125-8-8v-86.105469c0-4.421875 3.574219-8 8-8 4.421875 0 8 3.578125 8 8v86.113282c0 4.414062-3.578125 7.992187-8 7.992187zm0 0"></path><path d="m207.753906 63.984375c-17.648437 0-32-14.351563-32-31.984375 0-17.648438 14.34375-32 31.964844-32 17.6875 0 32.035156 14.351562 32.035156 32 0 17.632812-14.355468 31.984375-32 31.984375zm.03125-47.984375c-8.863281 0-16.03125 7.175781-16.03125 16 0 8.816406 7.175782 15.984375 16 15.984375 8.820313 0 16-7.167969 16-15.984375s-7.160156-16-15.96875-16zm0 0"></path><path d="m207.753906 424.128906c-4.425781 0-8-3.578125-8-8v-182.25c0-4.421875 3.574219-8 8-8 4.421875 0 8 3.578125 8 8v182.242188c0 4.421875-3.578125 8.007812-8 8.007812zm0 0"></path><path d="m359.695312 384.097656c-30.878906 0-56.007812-25.128906-56.007812-56 0-4.425781 3.578125-8 8-8 4.425781 0 8 3.574219 8 8 0 22.054688 17.945312 40 40.007812 40 22.066407 0 40.007813-17.945312 40.007813-40 0-4.425781 3.578125-8 8-8 4.425781 0 8 3.574219 8 8 0 30.871094-25.128906 56-56.007813 56zm0 0"></path><path d="m407.679688 336.222656h-95.976563c-4.421875 0-8-3.574218-8-8 0-4.421875 3.578125-8 8-8h95.96875c4.425781 0 8 3.578125 8 8 0 4.425782-3.574219 8-7.992187 8zm0 0"></path><path d="m407.671875 336.222656c-3.480469 0-6.679687-2.277344-7.679687-5.796875l-48.199219-168.097656c-1.21875-4.238281 1.230469-8.671875 5.488281-9.886719 4.246094-1.210937 8.679688 1.230469 9.886719 5.488282l48.191406 168.101562c1.214844 4.242188-1.230469 8.671875-5.488281 9.890625-.726563.207031-1.472656.300781-2.199219.300781zm0 0"></path><path d="m311.710938 336.222656c-.726563 0-1.464844-.09375-2.191407-.300781-4.246093-1.210937-6.71875-5.632813-5.503906-9.882813l47.777344-168.101562c1.207031-4.25 5.605469-6.753906 9.878906-5.503906 4.25 1.207031 6.71875 5.628906 5.503906 9.878906l-47.777343 168.101562c-1 3.515626-4.199219 5.808594-7.6875 5.808594zm0 0"></path><path d="m379.816406 143.953125h-108.0625c-4.425781 0-8-3.578125-8-8 0-4.425781 3.574219-8 8-8h108.0625c4.421875 0 8 3.574219 8 8 0 4.421875-3.578125 8-8 8zm0 0"></path><path d="m379.816406 168.121094h-84.390625c-4.425781 0-8-3.578125-8-8 0-4.425782 3.574219-8 8-8h84.390625c4.421875 0 8 3.574218 8 8 0 4.421875-3.578125 8-8 8zm0 0"></path><path d="m379.816406 168.128906c-4.425781 0-8-3.578125-8-8 0-4.425781 3.574219-8 8-8 2.199219 0 4-1.800781 4-4 0-2.199218-1.800781-4-4-4-4.425781 0-8-3.578125-8-8 0-4.425781 3.574219-8 8-8 11.03125 0 20 8.96875 20 20s-8.96875 20-20 20zm0 0"></path><path d="m56.046875 384.097656c-30.878906 0-56.0078125-25.128906-56.0078125-56 0-4.425781 3.5781255-8 7.9999995-8 4.425782 0 8 3.574219 8 8 0 22.054688 17.945313 40 40.007813 40 22.066406 0 40.007813-17.945312 40.007813-40 0-4.425781 3.578124-8 8-8 4.425781 0 8 3.574219 8 8 0 30.871094-25.117188 56-56.007813 56zm0 0"></path><path d="m104.039062 336.222656h-95.976562c-4.421875 0-8-3.574218-8-8 0-4.421875 3.578125-8 8-8h95.96875c4.425781 0 8 3.578125 8 8 0 4.425782-3.574219 8-7.992188 8zm0 0"></path><path d="m8.070312 336.222656c-.734374 0-1.476562-.101562-2.207031-.3125-4.246093-1.214844-6.703125-5.644531-5.488281-9.886718l48.191406-168.101563c1.210938-4.25 5.632813-6.714844 9.890625-5.488281 4.246094 1.214844 6.703125 5.644531 5.488281 9.886718l-48.191406 168.113282c-1 3.511718-4.203125 5.789062-7.683594 5.789062zm0 0"></path><path d="m104.03125 336.222656c-3.488281 0-6.6875-2.292968-7.6875-5.816406l-47.777344-168.101562c-1.207031-4.25 1.257813-8.671876 5.503906-9.878907 4.265626-1.226562 8.671876 1.253907 9.882813 5.503907l47.773437 168.101562c1.210938 4.25-1.253906 8.671875-5.503906 9.878906-.734375.226563-1.46875.3125-2.191406.3125zm0 0"></path><path d="m143.992188 143.953125h-108.0625c-4.425782 0-8-3.578125-8-8 0-4.425781 3.574218-8 8-8h108.0625c4.421874 0 8 3.574219 8 8 0 4.421875-3.585938 8-8 8zm0 0"></path><path d="m120.320312 168.121094h-84.390624c-4.425782 0-8-3.578125-8-8 0-4.425782 3.574218-8 8-8h84.390624c4.421876 0 8 3.574218 8 8 0 4.421875-3.585937 8-8 8zm0 0"></path><path d="m35.929688 168.128906c-11.035157 0-20-8.96875-20-20s8.964843-20 20-20c4.421874 0 8 3.574219 8 8 0 4.421875-3.578126 8-8 8-2.203126 0-4 1.800782-4 4 0 2.199219 1.796874 4 4 4 4.421874 0 8 3.574219 8 8 0 4.421875-3.578126 8-8 8zm0 0"></path><path d="m191.753906 120.128906c-2.050781 0-4.097656-.785156-5.65625-2.34375-3.128906-3.121094-3.128906-8.183594 0-11.3125l32-32.03125c3.125-3.128906 8.183594-3.128906 11.308594 0 3.128906 3.117188 3.128906 8.183594 0 11.3125l-32 32.03125c-1.558594 1.558594-3.605469 2.34375-5.652344 2.34375zm0 0"></path></svg>