<svg width="135" height="21" viewBox="0 0 135 21" fill="none" xmlns="http://www.w3.org/2000/svg">
<path d="M0.716 20V1.488H15.562V5.414H4.72V8.742H12.52V12.642H4.72V16.048H15.562V20H0.716ZM16.8007 20L24.9387 1.488H28.6827L36.8467 20H32.5047L31.5427 17.868H22.0527L21.1427 20H16.8007ZM23.6647 14.046H29.9567L26.8107 6.48L23.6647 14.046ZM37.4065 17.322L39.8245 13.968C42.5805 15.918 44.7905 16.62 46.5845 16.62C48.6905 16.62 49.9905 15.814 49.9905 15.008C49.9905 11.914 37.7185 13.084 37.7185 6.61C37.7185 3.386 40.7605 0.863998 45.0245 0.863998C47.4165 0.863998 50.2245 1.67 53.3445 3.672L51.1085 7.052C48.6125 5.466 46.4545 4.842 44.7905 4.842C42.8925 4.842 41.7225 5.648 41.7225 6.454C41.7225 8.82 54.0205 8.04 54.0205 14.93C54.0205 17.972 50.9785 20.624 46.4285 20.624C43.8025 20.624 40.7345 19.636 37.4065 17.322ZM61.8069 20V15.502L54.7089 1.488H59.2329L63.8089 10.926L68.4109 1.488H72.9089L65.7849 15.502V20H61.8069ZM74.7043 20V1.488H82.5303C87.6523 1.488 91.7603 5.648 91.7603 10.77C91.7603 15.84 87.6523 20 82.5303 20H74.7043ZM78.7083 16.048H82.6863C85.5463 16.048 87.7823 13.656 87.7823 10.77C87.7823 7.832 85.5463 5.44 82.6863 5.44H78.7083V16.048ZM93.3934 10.718C93.3934 5.31 97.8394 0.863998 103.273 0.863998C108.733 0.863998 113.179 5.31 113.179 10.718C113.179 16.204 108.733 20.624 103.273 20.624C97.8394 20.624 93.3934 16.204 93.3934 10.718ZM109.175 10.718C109.175 7.52 106.549 4.842 103.273 4.842C100.049 4.842 97.3974 7.52 97.3974 10.718C97.3974 13.994 100.049 16.646 103.273 16.646C106.549 16.646 109.175 13.994 109.175 10.718ZM114.823 10.718C114.823 5.31 119.269 0.863998 124.703 0.863998C130.163 0.863998 134.609 5.31 134.609 10.718C134.609 16.204 130.163 20.624 124.703 20.624C119.269 20.624 114.823 16.204 114.823 10.718ZM130.605 10.718C130.605 7.52 127.979 4.842 124.703 4.842C121.479 4.842 118.827 7.52 118.827 10.718C118.827 13.994 121.479 16.646 124.703 16.646C127.979 16.646 130.605 13.994 130.605 10.718Z" fill="url(#paint0_linear_379_1180)"/>
<defs>
<linearGradient id="paint0_linear_379_1180" x1="3.5" y1="-6.99999" x2="158" y2="35.5" gradientUnits="userSpaceOnUse">
<stop stop-color="#484FE7"/>
<stop offset="1" stop-color="#8E3DF5"/>
</linearGradient>
</defs>
</svg>
