<?xml version="1.0" encoding="UTF-8"?> <svg xmlns="http://www.w3.org/2000/svg" viewBox="1744 2243.96 512 512.08" width="512" height="512.08"><path fill="#ffd014" stroke="none" fill-opacity="1" stroke-width="1" stroke-opacity="1" color="rgb(51, 51, 51)" font-size-adjust="none" id="tSvg15466109e94" title="Path 1" d="M 1936 2411.92875 C 1931.574219 2411.92875 1927.960938 2408.350625 1927.960938 2403.92875 C 1927.960938 2399.502969 1931.496094 2395.92875 1935.910156 2395.92875 C 1935.940104 2395.92875 1935.9700520000001 2395.92875 1936 2395.92875 C 1940.414062 2395.92875 1944 2399.502969 1944 2403.92875C 1944 2408.350625 1940.40625 2411.92875 1936 2411.92875Z"></path><path fill="#ffd014" stroke="none" fill-opacity="1" stroke-width="1" stroke-opacity="1" color="rgb(51, 51, 51)" font-size-adjust="none" id="tSvg18edc6c305f" title="Path 2" d="M 1999.761719 2756.038125 C 1997.039062 2756.038125 1994.390625 2754.655312 1992.894531 2752.159219 C 1984.894531 2738.8258856666666 1976.894531 2725.492552333333 1968.894531 2712.159219 C 1966.625 2708.36625 1967.847656 2703.456094 1971.640625 2701.182656 C 1975.441406 2698.905312 1980.351562 2700.143594 1982.617188 2703.92875 C 1990.617188 2717.2620833333335 1998.617188 2730.595416666667 2006.617188 2743.92875 C 2008.886719 2747.721719 2007.664062 2752.631875 2003.871094 2754.905312C 2002.585938 2755.670938 2001.160156 2756.038125 1999.761719 2756.038125Z"></path><path fill="#ffd014" stroke="none" fill-opacity="1" stroke-width="1" stroke-opacity="1" color="rgb(51, 51, 51)" font-size-adjust="none" id="tSvgf9dc204edb" title="Path 3" d="M 1999.742188 2756.038125 C 1998.34375 2756.038125 1996.921875 2755.670938 1995.632812 2754.8975 C 1991.839844 2752.624062 1990.617188 2747.713906 1992.886719 2743.920938 C 2000.886719 2730.5876046666667 2008.886719 2717.2542713333332 2016.886719 2703.920938 C 2019.152344 2700.135781 2024.070312 2698.8975 2027.863281 2701.174844 C 2031.65625 2703.448281 2032.878906 2708.358438 2030.609375 2712.151406 C 2022.609375 2725.4847393333334 2014.609375 2738.818072666667 2006.609375 2752.151406C 2005.113281 2754.655312 2002.464844 2756.038125 1999.742188 2756.038125Z"></path><path fill="#ffd014" stroke="none" fill-opacity="1" stroke-width="1" stroke-opacity="1" color="rgb(51, 51, 51)" font-size-adjust="none" id="tSvge0bc1b01f8" title="Path 4" d="M 1975.753906 2716.038125 C 1971.328125 2716.038125 1967.753906 2712.463906 1967.753906 2708.038125 C 1967.753906 2609.335 1967.753906 2510.631875 1967.753906 2411.92875 C 1967.753906 2407.502969 1971.328125 2403.92875 1975.753906 2403.92875 C 1980.175781 2403.92875 1983.753906 2407.502969 1983.753906 2411.92875 C 1983.753906 2510.631875 1983.753906 2609.335 1983.753906 2708.038125C 1983.753906 2712.463906 1980.175781 2716.038125 1975.753906 2716.038125Z"></path><path fill="#ffd014" stroke="none" fill-opacity="1" stroke-width="1" stroke-opacity="1" color="rgb(51, 51, 51)" font-size-adjust="none" id="tSvg1736170eecd" title="Path 5" d="M 2023.753906 2716.038125 C 2019.328125 2716.038125 2015.753906 2712.463906 2015.753906 2708.038125 C 2015.753906 2609.335 2015.753906 2510.631875 2015.753906 2411.92875 C 2015.753906 2407.502969 2019.328125 2403.92875 2023.753906 2403.92875 C 2028.175781 2403.92875 2031.753906 2407.502969 2031.753906 2411.92875 C 2031.753906 2510.631875 2031.753906 2609.335 2031.753906 2708.038125C 2031.753906 2712.463906 2028.175781 2716.038125 2023.753906 2716.038125Z"></path><path fill="#ffd014" stroke="none" fill-opacity="1" stroke-width="1" stroke-opacity="1" color="rgb(51, 51, 51)" font-size-adjust="none" id="tSvgb60be49cbb" title="Path 6" d="M 2041.160156 2419.92875 C 2013.565104 2419.92875 1985.9700520000001 2419.92875 1958.375 2419.92875 C 1953.953125 2419.92875 1950.375 2416.350625 1950.375 2411.92875 C 1950.375 2407.502969 1953.953125 2403.92875 1958.375 2403.92875 C 1985.9700520000001 2403.92875 2013.565104 2403.92875 2041.160156 2403.92875 C 2045.585938 2403.92875 2049.160156 2407.502969 2049.160156 2411.92875C 2049.160156 2416.350625 2045.585938 2419.92875 2041.160156 2419.92875Z"></path><path fill="#ffd014" stroke="none" fill-opacity="1" stroke-width="1" stroke-opacity="1" color="rgb(51, 51, 51)" font-size-adjust="none" id="tSvg2fd1277f98" title="Path 7" d="M 2063.753906 2387.913125 C 2021.0924476666667 2387.913125 1978.4309893333334 2387.913125 1935.769531 2387.913125 C 1931.34375 2387.913125 1927.769531 2384.335 1927.769531 2379.913125 C 1927.769531 2375.487344 1931.34375 2371.913125 1935.769531 2371.913125 C 1978.4309893333334 2371.913125 2021.0924476666667 2371.913125 2063.753906 2371.913125 C 2068.175781 2371.913125 2071.753906 2375.487344 2071.753906 2379.913125C 2071.753906 2384.335 2068.175781 2387.913125 2063.753906 2387.913125Z"></path><path fill="#ffd014" stroke="none" fill-opacity="1" stroke-width="1" stroke-opacity="1" color="rgb(51, 51, 51)" font-size-adjust="none" id="tSvg4527920bb7" title="Path 8" d="M 1935.761719 2435.92875 C 1918.105469 2435.905312 1903.753906 2421.55375 1903.753906 2403.92875 C 1903.753906 2386.295938 1918.113281 2371.936562 1935.761719 2371.913125 C 1935.7643229999999 2371.913125 1935.7669270000001 2371.913125 1935.769531 2371.913125 C 1940.183594 2371.913125 1943.761719 2375.487344 1943.769531 2379.905312 C 1943.777344 2384.319375 1940.199219 2387.905312 1935.777344 2387.913125 C 1926.945312 2387.920938 1919.753906 2395.104531 1919.753906 2403.92875 C 1919.753906 2412.745156 1926.929688 2419.920938 1935.761719 2419.92875 C 1944.574219 2419.920938 1951.753906 2412.745156 1951.753906 2403.92875 C 1951.753906 2399.502969 1955.328125 2395.92875 1959.753906 2395.92875 C 1964.175781 2395.92875 1967.753906 2399.502969 1967.753906 2403.92875C 1967.753906 2421.55375 1953.398438 2435.905312 1935.761719 2435.92875Z"></path><path fill="#ffd014" stroke="none" fill-opacity="1" stroke-width="1" stroke-opacity="1" color="rgb(51, 51, 51)" font-size-adjust="none" id="tSvgb592b9dfa8" title="Path 9" d="M 2064 2411.913125 C 2059.574219 2411.913125 2055.960938 2408.335 2055.960938 2403.913125 C 2055.960938 2399.487344 2059.496094 2395.913125 2063.910156 2395.913125 C 2063.940104 2395.913125 2063.970052 2395.913125 2064 2395.913125 C 2068.414062 2395.913125 2072 2399.487344 2072 2403.913125C 2072 2408.335 2068.40625 2411.913125 2064 2411.913125Z"></path><path fill="#ffd014" stroke="none" fill-opacity="1" stroke-width="1" stroke-opacity="1" color="rgb(51, 51, 51)" font-size-adjust="none" id="tSvgf90f552d" title="Path 10" d="M 2063.761719 2435.92875 C 2046.121094 2435.92875 2031.761719 2421.577188 2031.734375 2403.936562 C 2031.726562 2399.518594 2035.304688 2395.936562 2039.726562 2395.92875 C 2039.7291663333333 2395.92875 2039.7317706666668 2395.92875 2039.734375 2395.92875 C 2044.152344 2395.92875 2047.726562 2399.502969 2047.734375 2403.920938 C 2047.742188 2412.752969 2054.929688 2419.92875 2063.753906 2419.92875 C 2068.023438 2419.920938 2072.046875 2418.256875 2075.070312 2415.225625 C 2078.097656 2412.198281 2079.761719 2408.182656 2079.753906 2403.920938 C 2079.753906 2395.096719 2072.574219 2387.920938 2063.742188 2387.913125 C 2059.3203120000003 2387.905312 2055.742188 2384.319375 2055.753906 2379.905312 C 2055.761719 2375.487344 2059.335938 2371.913125 2063.753906 2371.913125 C 2063.7565103333336 2371.913125 2063.759114666667 2371.913125 2063.761719 2371.913125 C 2081.398438 2371.936562 2095.753906 2386.288125 2095.753906 2403.913125 C 2095.761719 2412.448281 2092.441406 2420.487344 2086.390625 2426.534219C 2080.34375 2432.585 2072.3203120000003 2435.920938 2063.761719 2435.92875Z"></path><path fill="#ffd014" stroke="none" fill-opacity="1" stroke-width="1" stroke-opacity="1" color="rgb(51, 51, 51)" font-size-adjust="none" id="tSvg5c3a96c955" title="Path 11" d="M 2015.753906 2387.913125 C 2011.328125 2387.913125 2007.753906 2384.335 2007.753906 2379.913125 C 2007.753906 2351.219114666667 2007.753906 2322.5251043333333 2007.753906 2293.831094 C 2007.753906 2289.409219 2011.328125 2285.831094 2015.753906 2285.831094 C 2020.175781 2285.831094 2023.753906 2289.409219 2023.753906 2293.831094 C 2023.753906 2322.5251043333333 2023.753906 2351.219114666667 2023.753906 2379.913125C 2023.753906 2384.335 2020.175781 2387.913125 2015.753906 2387.913125Z"></path><path fill="#ffd014" stroke="none" fill-opacity="1" stroke-width="1" stroke-opacity="1" color="rgb(51, 51, 51)" font-size-adjust="none" id="tSvg84a4666c58" title="Path 12" d="M 1983.753906 2387.913125 C 1979.328125 2387.913125 1975.753906 2384.335 1975.753906 2379.913125 C 1975.753906 2351.211302 1975.753906 2322.509479 1975.753906 2293.807656 C 1975.753906 2289.385781 1979.328125 2285.807656 1983.753906 2285.807656 C 1988.175781 2285.807656 1991.753906 2289.385781 1991.753906 2293.807656 C 1991.753906 2322.5120833333335 1991.753906 2351.2165106666666 1991.753906 2379.920938C 1991.753906 2384.335 1988.175781 2387.913125 1983.753906 2387.913125Z"></path><path fill="#ffd014" stroke="none" fill-opacity="1" stroke-width="1" stroke-opacity="1" color="rgb(51, 51, 51)" font-size-adjust="none" id="tSvg2409792274" title="Path 13" d="M 1999.753906 2307.944375 C 1982.105469 2307.944375 1967.753906 2293.592812 1967.753906 2275.96 C 1967.753906 2258.311562 1982.097656 2243.96 1999.71875 2243.96 C 2017.40625 2243.96 2031.753906 2258.311562 2031.753906 2275.96C 2031.753906 2293.592812 2017.398438 2307.944375 1999.753906 2307.944375Z M 1999.785156 2259.96 C 1990.921875 2259.96 1983.753906 2267.135781 1983.753906 2275.96 C 1983.753906 2284.776406 1990.929688 2291.944375 1999.753906 2291.944375 C 2008.574219 2291.944375 2015.753906 2284.776406 2015.753906 2275.96C 2015.753906 2267.143594 2008.59375 2259.96 1999.785156 2259.96Z"></path><path fill="#ffd014" stroke="none" fill-opacity="1" stroke-width="1" stroke-opacity="1" color="rgb(51, 51, 51)" font-size-adjust="none" id="tSvg7144990a40" title="Path 14" d="M 1999.753906 2668.088906 C 1995.328125 2668.088906 1991.753906 2664.510781 1991.753906 2660.088906 C 1991.753906 2599.338906 1991.753906 2538.588906 1991.753906 2477.838906 C 1991.753906 2473.417031 1995.328125 2469.838906 1999.753906 2469.838906 C 2004.175781 2469.838906 2007.753906 2473.417031 2007.753906 2477.838906 C 2007.753906 2538.586302 2007.753906 2599.333698 2007.753906 2660.081094C 2007.753906 2664.502969 2004.175781 2668.088906 1999.753906 2668.088906Z"></path><path fill="#ffd014" stroke="none" fill-opacity="1" stroke-width="1" stroke-opacity="1" color="rgb(51, 51, 51)" font-size-adjust="none" id="tSvg142f51d0c20" title="Path 15" d="M 2151.695312 2628.057656 C 2120.816406 2628.057656 2095.6875 2602.92875 2095.6875 2572.057656 C 2095.6875 2567.631875 2099.265625 2564.057656 2103.6875 2564.057656 C 2108.113281 2564.057656 2111.6875 2567.631875 2111.6875 2572.057656 C 2111.6875 2594.112344 2129.632812 2612.057656 2151.695312 2612.057656 C 2173.761719 2612.057656 2191.703125 2594.112344 2191.703125 2572.057656 C 2191.703125 2567.631875 2195.28125 2564.057656 2199.703125 2564.057656 C 2204.128906 2564.057656 2207.703125 2567.631875 2207.703125 2572.057656C 2207.703125 2602.92875 2182.574219 2628.057656 2151.695312 2628.057656Z"></path><path fill="#ffd014" stroke="none" fill-opacity="1" stroke-width="1" stroke-opacity="1" color="rgb(51, 51, 51)" font-size-adjust="none" id="tSvg66cc1ad519" title="Path 16" d="M 2199.679688 2580.182656 C 2167.6875003333334 2580.182656 2135.6953126666667 2580.182656 2103.703125 2580.182656 C 2099.28125 2580.182656 2095.703125 2576.608438 2095.703125 2572.182656 C 2095.703125 2567.760781 2099.28125 2564.182656 2103.703125 2564.182656 C 2135.6927083333335 2564.182656 2167.6822916666665 2564.182656 2199.671875 2564.182656 C 2204.097656 2564.182656 2207.671875 2567.760781 2207.671875 2572.182656C 2207.671875 2576.608438 2204.097656 2580.182656 2199.679688 2580.182656Z"></path><path fill="#ffd014" stroke="none" fill-opacity="1" stroke-width="1" stroke-opacity="1" color="rgb(51, 51, 51)" font-size-adjust="none" id="tSvg45c6076195" title="Path 17" d="M 2199.671875 2580.182656 C 2196.191406 2580.182656 2192.992188 2577.905312 2191.992188 2574.385781 C 2175.925781666667 2518.353229 2159.8593753333334 2462.320677 2143.792969 2406.288125 C 2142.574219 2402.049844 2145.023438 2397.61625 2149.28125 2396.401406 C 2153.527344 2395.190469 2157.960938 2397.631875 2159.167969 2401.889688 C 2175.2317709999998 2457.923542 2191.295573 2513.957396 2207.359375 2569.99125 C 2208.574219 2574.233438 2206.128906 2578.663125 2201.871094 2579.881875C 2201.144531 2580.088906 2200.398438 2580.182656 2199.671875 2580.182656Z"></path><path fill="#ffd014" stroke="none" fill-opacity="1" stroke-width="1" stroke-opacity="1" color="rgb(51, 51, 51)" font-size-adjust="none" id="tSvga23dd8198b" title="Path 18" d="M 2103.710938 2580.182656 C 2102.984375 2580.182656 2102.246094 2580.088906 2101.519531 2579.881875 C 2097.273438 2578.670938 2094.800781 2574.249062 2096.015625 2569.999062 C 2111.9414063333334 2513.965208 2127.8671876666667 2457.9313540000003 2143.792969 2401.8975 C 2145 2397.6475 2149.398438 2395.143594 2153.671875 2396.393594 C 2157.921875 2397.600625 2160.390625 2402.0225 2159.175781 2406.2725 C 2143.25 2462.306354 2127.324219 2518.340208 2111.398438 2574.374062C 2110.398438 2577.889688 2107.199219 2580.182656 2103.710938 2580.182656Z"></path><path fill="#ffd014" stroke="none" fill-opacity="1" stroke-width="1" stroke-opacity="1" color="rgb(51, 51, 51)" font-size-adjust="none" id="tSvg17196bbcc90" title="Path 19" d="M 2171.816406 2387.913125 C 2135.795572666667 2387.913125 2099.7747393333334 2387.913125 2063.753906 2387.913125 C 2059.328125 2387.913125 2055.753906 2384.335 2055.753906 2379.913125 C 2055.753906 2375.487344 2059.328125 2371.913125 2063.753906 2371.913125 C 2099.7747393333334 2371.913125 2135.795572666667 2371.913125 2171.816406 2371.913125 C 2176.238281 2371.913125 2179.816406 2375.487344 2179.816406 2379.913125C 2179.816406 2384.335 2176.238281 2387.913125 2171.816406 2387.913125Z"></path><path fill="#ffd014" stroke="none" fill-opacity="1" stroke-width="1" stroke-opacity="1" color="rgb(51, 51, 51)" font-size-adjust="none" id="tSvg69d0f13ff3" title="Path 20" d="M 2171.816406 2412.081094 C 2143.686197666667 2412.081094 2115.5559893333334 2412.081094 2087.425781 2412.081094 C 2083 2412.081094 2079.425781 2408.502969 2079.425781 2404.081094 C 2079.425781 2399.655312 2083 2396.081094 2087.425781 2396.081094 C 2115.5559893333334 2396.081094 2143.686197666667 2396.081094 2171.816406 2396.081094 C 2176.238281 2396.081094 2179.816406 2399.655312 2179.816406 2404.081094C 2179.816406 2408.502969 2176.238281 2412.081094 2171.816406 2412.081094Z"></path><path fill="#ffd014" stroke="none" fill-opacity="1" stroke-width="1" stroke-opacity="1" color="rgb(51, 51, 51)" font-size-adjust="none" id="tSvg1261897599" title="Path 21" d="M 2171.816406 2412.088906 C 2167.390625 2412.088906 2163.816406 2408.510781 2163.816406 2404.088906 C 2163.816406 2399.663125 2167.390625 2396.088906 2171.816406 2396.088906 C 2174.015625 2396.088906 2175.816406 2394.288125 2175.816406 2392.088906 C 2175.816406 2389.889688 2174.015625 2388.088906 2171.816406 2388.088906 C 2167.390625 2388.088906 2163.816406 2384.510781 2163.816406 2380.088906 C 2163.816406 2375.663125 2167.390625 2372.088906 2171.816406 2372.088906 C 2182.847656 2372.088906 2191.816406 2381.057656 2191.816406 2392.088906C 2191.816406 2403.120156 2182.847656 2412.088906 2171.816406 2412.088906Z"></path><path fill="#ffd014" stroke="none" fill-opacity="1" stroke-width="1" stroke-opacity="1" color="rgb(51, 51, 51)" font-size-adjust="none" id="tSvg14db6b26d7e" title="Path 22" d="M 1848.046875 2628.057656 C 1817.167969 2628.057656 1792.0390625 2602.92875 1792.0390625 2572.057656 C 1792.0390625 2567.631875 1795.617188 2564.057656 1800.039062 2564.057656 C 1804.464844 2564.057656 1808.039062 2567.631875 1808.039062 2572.057656 C 1808.039062 2594.112344 1825.984375 2612.057656 1848.046875 2612.057656 C 1870.113281 2612.057656 1888.054688 2594.112344 1888.054688 2572.057656 C 1888.054688 2567.631875 1891.632812 2564.057656 1896.054688 2564.057656 C 1900.480469 2564.057656 1904.054688 2567.631875 1904.054688 2572.057656C 1904.054688 2602.92875 1878.9375 2628.057656 1848.046875 2628.057656Z"></path><path fill="#ffd014" stroke="none" fill-opacity="1" stroke-width="1" stroke-opacity="1" color="rgb(51, 51, 51)" font-size-adjust="none" id="tSvg22c2cd8714" title="Path 23" d="M 1896.039062 2580.182656 C 1864.0468746666666 2580.182656 1832.0546873333333 2580.182656 1800.0625 2580.182656 C 1795.640625 2580.182656 1792.0625 2576.608438 1792.0625 2572.182656 C 1792.0625 2567.760781 1795.640625 2564.182656 1800.0625 2564.182656 C 1832.0520833333333 2564.182656 1864.0416666666667 2564.182656 1896.03125 2564.182656 C 1900.457031 2564.182656 1904.03125 2567.760781 1904.03125 2572.182656C 1904.03125 2576.608438 1900.457031 2580.182656 1896.039062 2580.182656Z"></path><path fill="#ffd014" stroke="none" fill-opacity="1" stroke-width="1" stroke-opacity="1" color="rgb(51, 51, 51)" font-size-adjust="none" id="tSvg5eb9a15463" title="Path 24" d="M 1800.070312 2580.182656 C 1799.335938 2580.182656 1798.59375 2580.081094 1797.863281 2579.870156 C 1793.617188 2578.655312 1791.160156 2574.225625 1792.375 2569.983438 C 1808.438802 2513.9495836666665 1824.502604 2457.9157293333333 1840.566406 2401.881875 C 1841.777344 2397.631875 1846.199219 2395.167031 1850.457031 2396.393594 C 1854.703125 2397.608438 1857.160156 2402.038125 1855.945312 2406.280312 C 1839.88151 2462.318072666667 1823.817708 2518.3558333333335 1807.753906 2574.393594C 1806.753906 2577.905312 1803.550781 2580.182656 1800.070312 2580.182656Z"></path><path fill="#ffd014" stroke="none" fill-opacity="1" stroke-width="1" stroke-opacity="1" color="rgb(51, 51, 51)" font-size-adjust="none" id="tSvge756310bd6" title="Path 25" d="M 1896.03125 2580.182656 C 1892.542969 2580.182656 1889.34375 2577.889688 1888.34375 2574.36625 C 1872.4179686666666 2518.332396 1856.4921873333333 2462.298542 1840.566406 2406.264688 C 1839.359375 2402.014688 1841.824219 2397.592812 1846.070312 2396.385781 C 1850.335938 2395.159219 1854.742188 2397.639688 1855.953125 2401.889688 C 1871.877604 2457.923542 1887.802083 2513.957396 1903.726562 2569.99125 C 1904.9375 2574.24125 1902.472656 2578.663125 1898.222656 2579.870156C 1897.488281 2580.096719 1896.753906 2580.182656 1896.03125 2580.182656Z"></path><path fill="#ffd014" stroke="none" fill-opacity="1" stroke-width="1" stroke-opacity="1" color="rgb(51, 51, 51)" font-size-adjust="none" id="tSvg1476ca86c9" title="Path 26" d="M 1935.992188 2387.913125 C 1899.9713546666667 2387.913125 1863.9505213333334 2387.913125 1827.929688 2387.913125 C 1823.503906 2387.913125 1819.929688 2384.335 1819.929688 2379.913125 C 1819.929688 2375.487344 1823.503906 2371.913125 1827.929688 2371.913125 C 1863.9505213333334 2371.913125 1899.9713546666667 2371.913125 1935.992188 2371.913125 C 1940.414062 2371.913125 1943.992188 2375.487344 1943.992188 2379.913125C 1943.992188 2384.335 1940.40625 2387.913125 1935.992188 2387.913125Z"></path><path fill="#ffd014" stroke="none" fill-opacity="1" stroke-width="1" stroke-opacity="1" color="rgb(51, 51, 51)" font-size-adjust="none" id="tSvgaf246675e7" title="Path 27" d="M 1912.320312 2412.081094 C 1884.190104 2412.081094 1856.059896 2412.081094 1827.929688 2412.081094 C 1823.503906 2412.081094 1819.929688 2408.502969 1819.929688 2404.081094 C 1819.929688 2399.655312 1823.503906 2396.081094 1827.929688 2396.081094 C 1856.059896 2396.081094 1884.190104 2396.081094 1912.320312 2396.081094 C 1916.742188 2396.081094 1920.320312 2399.655312 1920.320312 2404.081094C 1920.320312 2408.502969 1916.734375 2412.081094 1912.320312 2412.081094Z"></path><path fill="#ffd014" stroke="none" fill-opacity="1" stroke-width="1" stroke-opacity="1" color="rgb(51, 51, 51)" font-size-adjust="none" id="tSvge269afc168" title="Path 28" d="M 1827.929688 2412.088906 C 1816.894531 2412.088906 1807.929688 2403.120156 1807.929688 2392.088906 C 1807.929688 2381.057656 1816.894531 2372.088906 1827.929688 2372.088906 C 1832.351562 2372.088906 1835.929688 2375.663125 1835.929688 2380.088906 C 1835.929688 2384.510781 1832.351562 2388.088906 1827.929688 2388.088906 C 1825.726562 2388.088906 1823.929688 2389.889688 1823.929688 2392.088906 C 1823.929688 2394.288125 1825.726562 2396.088906 1827.929688 2396.088906 C 1832.351562 2396.088906 1835.929688 2399.663125 1835.929688 2404.088906C 1835.929688 2408.510781 1832.351562 2412.088906 1827.929688 2412.088906Z"></path><path fill="#ffd014" stroke="none" fill-opacity="1" stroke-width="1" stroke-opacity="1" color="rgb(51, 51, 51)" font-size-adjust="none" id="tSvg9dfd78b350" title="Path 29" d="M 1983.753906 2364.088906 C 1981.703125 2364.088906 1979.65625 2363.30375 1978.097656 2361.745156 C 1974.96875 2358.624062 1974.96875 2353.561562 1978.097656 2350.432656 C 1988.7643226666667 2339.755572666667 1999.4309893333334 2329.0784893333334 2010.097656 2318.401406 C 2013.222656 2315.2725 2018.28125 2315.2725 2021.40625 2318.401406 C 2024.535156 2321.518594 2024.535156 2326.585 2021.40625 2329.713906 C 2010.7395833333333 2340.3909893333334 2000.0729166666667 2351.068072666667 1989.40625 2361.745156C 1987.847656 2363.30375 1985.800781 2364.088906 1983.753906 2364.088906Z"></path><defs> </defs></svg> 